# xmcd
# 
# Track frame offsets:
#     150
#     9737
#     18975
#     31921
#     43249
#     54058
#     67233
#     78786
#     90431
#     102527
#     113814
#     123506
# 
# Disc length: 1803
# 
# Revision: 0
# Processed by: cddbd v1.5.2PL0 Copyright (c) Steve Scherf et al.
# Submitted via: fre:ac v1.0.17
# 
DISCID=9307090c
DTITLE=George Jones - The Voice Of Country
DYEAR=0
DGENRE=Country
TTITLE0=Sweet Dreams
TTITLE1=Jonesy
TTITLE2=Lifetime To Regret
TTITLE3=One Is A Lonely Number
TTITLE4=Treasure Of Love
TTITLE5=When The Grass Grows Over Me
TTITLE6=World Of Forgotten People
TTITLE7=A House Without Love Is Not A Home
TTITLE8=She Thinks I Still Care
TTITLE9=Tender Years
TTITLE10=The Race Is On
TTITLE11=There's No Justice
EXTD=
EXTT0=
EXTT1=
EXTT2=
EXTT3=
EXTT4=
EXTT5=
EXTT6=
EXTT7=
EXTT8=
EXTT9=
EXTT10=
EXTT11=
PLAYORDER=
